<?xml version="1.0" encoding="UTF-8"?>
<svg fill="#FFFFFF" id="Layer_1" xmlns="http://www.w3.org/2000/svg" version="1.1" viewBox="0 0 328 529">
  
  
  <path fill="#FFFFFF" d="M264.17,184.05c-45.34-17.44-100.05-6.57-145.26,5.62-9.61,2.57-12.68,3.28-22.24,6.38,26.95-43.97,54.48-77.28,87.56-110.09,1.26-1.25,1.74-3.1,1.23-4.8-1.31-4.37-2.82-8.69-4.92-12.55-.83-1.54-2.92-1.87-4.15-.61-39.34,40.33-70.56,87.15-97.95,133.09-.49.84-.96,1.67-1.45,2.51-8.89,3.11-19.25,6.61-27.95,10.2C72.49,148.48,155.07,27.17,167.75,9c.95-1.36,1.08-3.13.35-4.62l-1.51-3.05c-.6-1.22-2.09-1.69-3.29-1.04C121.07,23.41,54.43,57.44,2.02,82.26c-1.27.6-2.06,1.91-2.02,3.32l.65,17.83c.06,1.77,1.91,2.88,3.5,2.12,39.33-18.82,114.07-54.01,114.07-54.01C93.49,89,26.35,215.03,17.75,238.07c-.56,1.5-.68,3.13-.38,4.69l.7,3.66c.32,1.7,2.17,2.64,3.74,1.9,4.07-1.93,10.83-5.13,11.99-5.59,8.41-3.53,16.88-6.8,25.34-9.92.91-.3,1.8-.59,2.71-.96-34.71,68.1-59.51,155.21-28.16,226.23,12.43,28.2,35.01,50.89,63.78,62.48,42.39,17.03,88.33,5.96,124.74-20.17,57.49-41.24,90.27-105.62,102.03-167.62,10.53-55.5-1.22-126.02-60.07-148.72h0ZM260.15,439.38c-31.77,43.07-80.16,71.27-134.32,57.94-72.66-17.86-93.16-97.82-83.92-163.98,5.69-40.79,23.93-77.85,38.42-107.71,20.41-6.87,34.72-10.5,55.86-14.81h.07c52.79-10.87,122.3-18.94,154.07,34.04,34.95,58.25,6.82,144.46-30.18,194.52Z"/>
</svg>